<?xml version="1.0" encoding="UTF-8" standalone="no"?>
<!-- Created with Inkscape (http://www.inkscape.org/) -->

<svg
   xmlns:dc="http://purl.org/dc/elements/1.1/"
   xmlns:cc="http://creativecommons.org/ns#"
   xmlns:rdf="http://www.w3.org/1999/02/22-rdf-syntax-ns#"
   xmlns:svg="http://www.w3.org/2000/svg"
   xmlns="http://www.w3.org/2000/svg"
   xmlns:xlink="http://www.w3.org/1999/xlink"
   xmlns:sodipodi="http://sodipodi.sourceforge.net/DTD/sodipodi-0.dtd"
   xmlns:inkscape="http://www.inkscape.org/namespaces/inkscape"
   width="220.50493mm"
   height="78.308846mm"
   viewBox="0 0 220.50493 78.308843"
   version="1.1"
   id="svg8"
   inkscape:version="0.92.4 (5da689c313, 2019-01-14)"
   sodipodi:docname="python_qgis_logo.svg">
  <defs
     id="defs2">
    <linearGradient
       inkscape:collect="always"
       id="linearGradient11301">
      <stop
         style="stop-color:#ffe052;stop-opacity:1"
         offset="0"
         id="stop11303" />
      <stop
         style="stop-color:#ffc331;stop-opacity:1"
         offset="1"
         id="stop11305" />
    </linearGradient>
    <linearGradient
       inkscape:collect="always"
       xlink:href="#linearGradient11301"
       id="linearGradient11307"
       x1="89.136749"
       y1="111.92053"
       x2="147.77737"
       y2="168.1012"
       gradientUnits="userSpaceOnUse" />
    <linearGradient
       inkscape:collect="always"
       id="linearGradient9515">
      <stop
         style="stop-color:#387eb8;stop-opacity:1"
         offset="0"
         id="stop9517" />
      <stop
         style="stop-color:#366994;stop-opacity:1"
         offset="1"
         id="stop9519" />
    </linearGradient>
    <linearGradient
       inkscape:collect="always"
       xlink:href="#linearGradient9515"
       id="linearGradient9521"
       x1="55.549179"
       y1="77.070274"
       x2="110.14919"
       y2="131.85291"
       gradientUnits="userSpaceOnUse" />
    <linearGradient
       y2="11.232"
       x2="197.17"
       y1="249.007"
       x1="200.78799"
       gradientUnits="userSpaceOnUse"
       id="Gradient_1">
      <stop
         id="stop5"
         stop-color="#589632"
         offset="0" />
      <stop
         id="stop7"
         stop-color="#93B023"
         offset="1" />
    </linearGradient>
    <linearGradient
       y2="16.927999"
       x2="126.351"
       y1="252.718"
       x1="129.939"
       gradientUnits="userSpaceOnUse"
       id="Gradient_2">
      <stop
         id="stop10"
         stop-color="#589632"
         offset="0" />
      <stop
         id="stop12"
         stop-color="#93B023"
         offset="1" />
    </linearGradient>
  </defs>
  <sodipodi:namedview
     id="base"
     pagecolor="#ffffff"
     bordercolor="#666666"
     borderopacity="1.0"
     inkscape:pageopacity="0.0"
     inkscape:pageshadow="2"
     inkscape:zoom="0.49497475"
     inkscape:cx="-148.83582"
     inkscape:cy="-443.38992"
     inkscape:document-units="mm"
     inkscape:current-layer="layer1"
     showgrid="false"
     fit-margin-top="15"
     fit-margin-left="20"
     fit-margin-right="20"
     fit-margin-bottom="1"
     inkscape:window-width="1920"
     inkscape:window-height="1016"
     inkscape:window-x="0"
     inkscape:window-y="27"
     inkscape:window-maximized="1" />
  <metadata
     id="metadata5">
    <rdf:RDF>
      <cc:Work
         rdf:about="">
        <dc:format>image/svg+xml</dc:format>
        <dc:type
           rdf:resource="http://purl.org/dc/dcmitype/StillImage" />
        <dc:title></dc:title>
      </cc:Work>
    </rdf:RDF>
  </metadata>
  <g
     inkscape:label="Calque 1"
     inkscape:groupmode="layer"
     id="layer1"
     transform="translate(-108.62213,-57.470811)">
    <g
       transform="matrix(0.55589131,0,0,0.55589131,-134.51507,-66.83767)"
       id="layer1-6"
       inkscape:label="Calque 1">
      <g
         transform="translate(428.42338,184.2561)"
         id="g1894">
        <path
           id="path8615"
           d="M 99.75,67.46875 C 71.718268,67.468752 73.46875,79.625 73.46875,79.625 L 73.5,92.21875 h 26.75 V 96 H 62.875 c 0,0 -17.9375,-2.034276 -17.9375,26.25 -2e-6,28.28427 15.65625,27.28125 15.65625,27.28125 h 9.34375 v -13.125 c 0,0 -0.503652,-15.65625 15.40625,-15.65625 15.9099,0 26.53125,0 26.53125,0 0,0 14.90625,0.24096 14.90625,-14.40625 0,-14.647206 0,-24.21875 0,-24.21875 0,-2e-6 2.26318,-14.65625 -27.03125,-14.65625 z M 85,75.9375 c 2.661429,-2e-6 4.8125,2.151071 4.8125,4.8125 2e-6,2.661429 -2.151071,4.8125 -4.8125,4.8125 -2.661429,2e-6 -4.8125,-2.151071 -4.8125,-4.8125 -2e-6,-2.661429 2.151071,-4.8125 4.8125,-4.8125 z"
           style="color:#000000;display:inline;overflow:visible;visibility:visible;opacity:1;fill:url(#linearGradient9521);fill-opacity:1;fill-rule:nonzero;stroke:none;stroke-width:1;stroke-linecap:butt;stroke-linejoin:miter;stroke-miterlimit:4;stroke-dasharray:none;stroke-dashoffset:0;stroke-opacity:1;marker:none;marker-start:none;marker-mid:none;marker-end:none"
           inkscape:connector-curvature="0" />
        <path
           style="color:#000000;display:inline;overflow:visible;visibility:visible;opacity:1;fill:url(#linearGradient11307);fill-opacity:1;fill-rule:nonzero;stroke:none;stroke-width:1;stroke-linecap:butt;stroke-linejoin:miter;stroke-miterlimit:4;stroke-dasharray:none;stroke-dashoffset:0;stroke-opacity:1;marker:none;marker-start:none;marker-mid:none;marker-end:none"
           d="m 100.5461,177.31485 c 28.03174,0 26.28125,-12.15625 26.28125,-12.15625 l -0.0312,-12.59375 h -26.75 v -3.78125 h 37.375 c 0,0 17.9375,2.03427 17.9375,-26.25001 10e-6,-28.284267 -15.65625,-27.281247 -15.65625,-27.281247 h -9.34375 v 13.124997 c 0,0 0.50366,15.65625 -15.40625,15.65625 -15.909902,0 -26.531252,0 -26.531252,0 0,0 -14.90625,-0.24096 -14.90625,14.40626 0,14.6472 0,24.21875 0,24.21875 0,0 -2.26318,14.65625 27.031252,14.65625 z m 14.75,-8.46875 c -2.66143,0 -4.8125,-2.15107 -4.8125,-4.8125 0,-2.66143 2.15107,-4.8125 4.8125,-4.8125 2.66143,0 4.8125,2.15107 4.8125,4.8125 1e-5,2.66143 -2.15107,4.8125 -4.8125,4.8125 z"
           id="path8620"
           inkscape:connector-curvature="0" />
      </g>
    </g>
    <g
       id="g3771"
       transform="matrix(0.26458333,0,0,0.26458333,242.8119,69.758567)">
      <g
         id="g17" />
      <g
         id="Layer_1">
        <path
           id="polygon3"
           d="m 137.607,136.899 h 34.437 L 142.898,108.083 H 107.19 v 34.309 l 30.417,30.316 z"
           inkscape:connector-curvature="0"
           style="fill:#ee7913" />
        <path
           id="polygon10"
           d="M 248.061,212.048 186.618,151.306 H 152.01 v 35.761 l 58.881,58.682 h 37.17 z"
           inkscape:connector-curvature="0"
           style="fill:url(#Gradient_1)" />
        <path
           id="polygon12"
           d="m 152.01,151.306 h 34.608 l -14.574,-14.407 h -34.437 v 35.809 l 14.403,14.359 z"
           inkscape:connector-curvature="0"
           style="fill:#f0e64a" />
        <path
           id="path19"
           d="m 144.826,199.3 c -5.22,1.202 -10.643,1.854 -16.238,1.854 -40.027,0 -74.072,-32.914 -74.072,-75.59 0,-42.677 33.666,-74.869 74.072,-74.869 40.401,0 72.57,32.187 72.57,74.869 0,6.937 -0.863,13.619 -2.461,19.945 l 37.047,37.042 c 9.552,-16.736 14.896,-36.197 14.896,-57.274 0,-65.778 -52.493,-115.026 -122.801,-115.026 -69.99,0 -122.479,48.927 -122.479,115.026 0,66.421 52.489,116.321 122.479,116.321 18.066,0 34.952,-3.323 50.077,-9.371 z"
           inkscape:connector-curvature="0"
           style="fill:url(#Gradient_2)" />
        <path
           id="polygon4153"
           d="M 107.19,108.083 248.061,245.749 V 212.048 L 186.618,151.306 172.044,136.898 142.898,108.083 Z"
           inkscape:connector-curvature="0"
           style="fill:#ffffff;fill-opacity:0.172" />
      </g>
    </g>
  </g>
</svg>
